# xmcd
#
# Track frame offsets:
#	150
#	37143
#	61138
#	80406
#	101218
#	131859
#	144758
#	172810
#	212457
#
# Disc length: 3060 seconds
#
# Revision: 3
# Processed by: cddbd v1.5.1PL2 Copyright (c) Steve Scherf et al.
# Submitted via: EasyCDDAExtractor 9.0.2.1
#
DISCID=770bf209
DTITLE=Deep Purple - Nec Arena Birmingham 09-11-93 Disc 1
DYEAR=2006
DGENRE=Hard Rock
TTITLE0=Highway Star
TTITLE1=Black Night
TTITLE2=Talk About Love
TTITLE3=A Twist In The Tail
TTITLE4=Perfect Strangers
TTITLE5=Beethoven
TTITLE6=Jon's Keyboard Solo
TTITLE7=Knockin' At Your Back Door
TTITLE8=Anyone's Daughter
EXTD=
EXTT0=
EXTT1=
EXTT2=
EXTT3=
EXTT4=
EXTT5=
EXTT6=
EXTT7=
EXTT8=
PLAYORDER=
